<?xml version="1.0" encoding="utf-8"?>
<!-- Generator: Adobe Illustrator 21.0.2, SVG Export Plug-In . SVG Version: 6.00 Build 0)  -->
<svg version="1.1" xmlns="http://www.w3.org/2000/svg" xmlns:xlink="http://www.w3.org/1999/xlink" x="0px" y="0px"
	 viewBox="0 0 180 140" style="enable-background:new 0 0 180 140;" xml:space="preserve">
<style type="text/css">
	.st0{fill:none;}
	.st1{fill:#FFFFFF;stroke:#4986FF;stroke-width:1.5;stroke-miterlimit:10;}
	.st2{fill:#4986FF;}
	.st3{fill:#FFFFFF;}
	.st4{fill:#FBB414;}
</style>
<g id="Layer_3">
</g>
<g id="Layer_2">
	<g>
		<rect x="11.5" y="92" class="st0" width="157" height="45.3"/>
		<path class="st1" d="M39.5,109.1l0-7.3l-3.5,5.9h-2.4l-3.5-5.6v7.1h-4.9V93h4.5l5.2,8.6l5.1-8.6h4.5l0,16.1H39.5z"/>
		<path class="st1" d="M61.1,105v4.1H47.7V93h13.1v4.1h-7.7V99h6.8v3.9h-6.8v2.1H61.1z"/>
		<path class="st1" d="M62.9,107.8l1.7-4c1.5,0.9,3.5,1.5,5.3,1.5c1.5,0,2.1-0.3,2.1-0.9c0-2-8.9-0.4-8.9-6.4c0-3,2.5-5.4,7.5-5.4
			c2.2,0,4.4,0.5,6.1,1.4L75.1,98c-1.6-0.8-3.1-1.2-4.5-1.2c-1.6,0-2.1,0.5-2.1,1c0,1.9,8.9,0.3,8.9,6.3c0,2.9-2.5,5.4-7.5,5.4
			C67.2,109.5,64.5,108.8,62.9,107.8z"/>
		<path class="st1" d="M90.7,106.3h-6.1l-1.1,2.8H78L85,93h5.3l7,16.1h-5.6L90.7,106.3z M89.2,102.4l-1.6-4l-1.6,4H89.2z"/>
		<path class="st1" d="M97.9,107.8l1.7-4c1.5,0.9,3.5,1.5,5.3,1.5c1.5,0,2.1-0.3,2.1-0.9c0-2-8.9-0.4-8.9-6.4c0-3,2.5-5.4,7.5-5.4
			c2.2,0,4.4,0.5,6.1,1.4l-1.6,3.9c-1.6-0.8-3.1-1.2-4.5-1.2c-1.6,0-2.1,0.5-2.1,1c0,1.9,8.9,0.3,8.9,6.3c0,2.9-2.5,5.4-7.5,5.4
			C102.3,109.5,99.5,108.8,97.9,107.8z"/>
		<path class="st1" d="M122.3,93h7.9c5.4,0,9.1,3.1,9.1,8c0,5-3.7,8-9.1,8h-7.9V93z M130,104.9c2.3,0,3.8-1.4,3.8-3.8
			c0-2.5-1.6-3.8-3.8-3.8h-2.3v7.6H130z"/>
		<path class="st1" d="M155.4,105v4.1H142V93h13.1v4.1h-7.7V99h6.8v3.9h-6.8v2.1H155.4z"/>
		<path class="st1" d="M26.6,133.9h-6.1l-1.1,2.8h-5.5l7-16.1h5.3l7,16.1h-5.6L26.6,133.9z M25.1,130l-1.6-4l-1.6,4H25.1z"/>
		<path class="st1" d="M40.3,124.7v2.8H47v4.1h-6.7v5.2h-5.4v-16.1H48v4.1H40.3z"/>
		<path class="st1" d="M50.4,120.6h5.4v16.1h-5.4V120.6z"/>
		<path class="st1" d="M59.1,120.6h5.4v11.9h7.3v4.2H59.1V120.6z"/>
		<path class="st1" d="M74,120.6h5.4v16.1H74V120.6z"/>
		<path class="st1" d="M93.7,133.9h-6.1l-1.1,2.8H81l7-16.1h5.3l7,16.1h-5.6L93.7,133.9z M92.2,130l-1.6-4l-1.6,4H92.2z"/>
		<path class="st1" d="M101.1,128.6c0-4.9,3.8-8.4,9-8.4c3.2,0,5.6,1.2,7.2,3.2l-3.4,3.1c-0.9-1.2-2.1-1.9-3.5-1.9
			c-2.3,0-3.8,1.6-3.8,4c0,2.5,1.5,4,3.8,4c1.4,0,2.6-0.7,3.5-1.9l3.4,3.1c-1.6,2.1-4.1,3.2-7.2,3.2
			C104.9,137.1,101.1,133.6,101.1,128.6z"/>
		<path class="st1" d="M119.5,120.6h5.4v16.1h-5.4V120.6z"/>
		<path class="st1" d="M127.6,128.6c0-4.9,3.8-8.4,9.1-8.4s9.1,3.5,9.1,8.4s-3.8,8.4-9.1,8.4S127.6,133.5,127.6,128.6z M140.3,128.6
			c0-2.5-1.6-4-3.6-4c-2,0-3.6,1.5-3.6,4c0,2.5,1.6,4,3.6,4C138.7,132.7,140.3,131.1,140.3,128.6z M137.3,115.6h4.9l-4.5,3.7h-3.4
			L137.3,115.6z"/>
		<path class="st1" d="M164.3,120.6v16.1h-4.5l-6.1-7.3v7.3h-5.3v-16.1h4.5l6.1,7.3v-7.3H164.3z"/>
	</g>
	<g>
		<g>
			<path class="st2" d="M90,75.2c-17.9,0-32.4-14.5-32.4-32.4S72.1,10.4,90,10.4c17.9,0,32.4,14.5,32.4,32.4S107.9,75.2,90,75.2z"/>
			<path class="st2" d="M40.8,78.7l-8.5-12v12H2.6V6.9h25.7l8.9,12.8V6.9h29.6v15.6l-1.7,1.7c-0.2,0.2-6.3,6.9-6.3,18.5
				c0,11.7,6.2,18.5,6.3,18.6l1.7,1.7v15.6H40.8z"/>
			<path class="st2" d="M90,83.2c-22.3,0-40.4-18.1-40.4-40.4C49.6,20.5,67.7,2.4,90,2.4c22.3,0,40.4,18.1,40.4,40.4
				C130.4,65.1,112.3,83.2,90,83.2z M90,24.5c-10.1,0-18.3,8.2-18.3,18.3S79.9,61.1,90,61.1c10.1,0,18.3-8.2,18.3-18.3
				S100.1,24.5,90,24.5z"/>
			<path class="st2" d="M90,62.9c-11.1,0-20.1-9-20.1-20.1s9-20.1,20.1-20.1s20.1,9,20.1,20.1S101.1,62.9,90,62.9z"/>
			<path class="st2" d="M143.2,79.4c-19.1-0.9-27.8-5.7-28.8-6.2l-6.5-3.8l5.1-5.5c0,0,4.9-5.3,6.5-11.2l1.4-4.8l0.2-2.2
				c0.4-3.5,0.2-14-4.7-19.9l-2.5-2.9l1.6-3.5c0.7-1.4,7.1-13.5,32.5-13.5c13.3,0,22.3,3.1,22.7,3.2l4.8,1.7l-4.4,27l-1.6-0.4
				c4.8,3.7,8.2,8.9,7.8,16.4c0.1,2.2-0.1,8.9-5.5,15.1c-5.8,6.6-15.3,10.2-28.2,10.7l-0.2,0L143.2,79.4z"/>
			<g>
				<path class="st2" d="M90.3,54.8c-0.4-0.4-0.8-0.8-1.1-1.2l-2,0.8c-0.3-0.5-0.5-0.9-0.8-1.4l-2.2,0.3c-0.2-0.5-0.3-1.1-0.4-1.6
					l-2.2-0.3c0-0.5,0-1.1,0-1.6l-2-0.8c0.1-0.5,0.3-1.1,0.5-1.6l-1.8-1.3c0.3-0.5,0.5-0.9,0.9-1.4l-1.3-1.8
					c0.4-0.4,0.8-0.8,1.2-1.1l-0.8-2c0.5-0.3,0.9-0.5,1.4-0.8l-0.3-2.2c0.5-0.2,1.1-0.3,1.6-0.4l0.3-2.2c0.1,0,0.3,0,0.4,0
					c0.4,0,0.8,0,1.2,0.1l0.8-2c0.5,0.1,1.1,0.3,1.6,0.5l1.3-1.8c0.5,0.3,0.9,0.5,1.4,0.9l1.8-1.3c0.4,0.4,0.8,0.8,1.1,1.2l2-0.8
					c0.3,0.5,0.5,0.9,0.8,1.4l2.2-0.3c0.2,0.5,0.3,1.1,0.4,1.6l2.2,0.3c0,0.5,0,1.1,0,1.6l2,0.8c-0.1,0.5-0.3,1.1-0.5,1.6l1.8,1.3
					c-0.3,0.5-0.5,0.9-0.9,1.4l1.3,1.8c-0.4,0.4-0.8,0.8-1.2,1.1l0.8,2c-0.5,0.3-0.9,0.5-1.4,0.8l0.3,2.2c-0.5,0.2-1.1,0.3-1.6,0.4
					L98.8,51c-0.1,0-0.3,0-0.4,0c-0.4,0-0.8,0-1.2-0.1l-0.8,2c-0.5-0.1-1.1-0.3-1.6-0.5l-1.3,1.8c-0.5-0.3-0.9-0.5-1.4-0.9
					L90.3,54.8z"/>
			</g>
		</g>
		<g>
			<path class="st3" d="M90,73.2c-16.8,0-30.4-13.6-30.4-30.4C59.6,26,73.2,12.4,90,12.4c16.8,0,30.4,13.6,30.4,30.4
				C120.4,59.6,106.8,73.2,90,73.2z"/>
			<path class="st3" d="M41.9,76.7L30.3,60.4v16.3H4.6V8.9h22.6l11.9,17.2V8.9h25.6v12.8l-1.1,1.2c-0.3,0.3-6.8,7.4-6.8,19.9
				c0,12.7,6.7,19.9,6.8,19.9l1.1,1.2v12.8H41.9z"/>
			<path class="st3" d="M90,81.2c-21.2,0-38.4-17.2-38.4-38.4S68.8,4.4,90,4.4c21.2,0,38.4,17.2,38.4,38.4S111.2,81.2,90,81.2z
				 M90,22.5c-11.2,0-20.3,9.1-20.3,20.3S78.8,63.1,90,63.1s20.3-9.1,20.3-20.3S101.2,22.5,90,22.5z"/>
			<path class="st3" d="M90,60.9c-10,0-18.1-8.1-18.1-18.1S80,24.7,90,24.7c10,0,18.1,8.1,18.1,18.1S100,60.9,90,60.9z"/>
			<path class="st3" d="M143.2,77.4c-18.9-0.9-27.5-5.7-27.9-5.9l-4.4-2.5l3.4-3.7c0,0,5.2-5.6,7-12l1.3-4.5l0.1,0l0.3-2.8
				c0-0.1,1.4-13.6-5.2-21.4l-1.6-2l1.1-2.3c0.6-1.3,6.5-12.4,30.7-12.4c13,0,21.7,3,22.1,3.1l3.2,1.1l-3.8,23.1l-4.3-1.1
				c-0.1,0-5.3-1.4-10.8-1.9c9.7,3.1,21.6,8.7,20.8,21.5c0.1,1.7,0,8-5,13.8c-5.4,6.2-14.4,9.5-26.8,10l-0.2,0L143.2,77.4z"/>
			<g>
				<path class="st3" d="M88.8,53.4c-0.2-0.3-0.4-0.6-0.5-0.9l-2.2,0.3c-0.1-0.3-0.2-0.7-0.3-1.1l-2.2-0.3c0-0.4,0-0.7,0-1.1
					l-2.1-0.9c0.1-0.3,0.2-0.7,0.3-1L80.1,47c0.2-0.3,0.4-0.6,0.6-0.9l-1.4-1.8c0.2-0.3,0.5-0.5,0.8-0.7l-0.8-2.1
					c0.3-0.2,0.6-0.4,0.9-0.5l-0.3-2.2c0.3-0.1,0.7-0.2,1.1-0.3l0.3-2.2c0.1,0,0.2,0,0.4,0c0.2,0,0.5,0,0.7,0l0.9-2.1
					c0.3,0.1,0.7,0.2,1,0.3l1.4-1.8c0.3,0.2,0.6,0.4,0.9,0.6l1.8-1.4c0.3,0.2,0.5,0.5,0.8,0.8l2.1-0.9c0.2,0.3,0.4,0.6,0.5,0.9
					l2.2-0.3c0.1,0.3,0.2,0.7,0.3,1.1l2.2,0.3c0,0.4,0,0.7,0,1.1l2.1,0.9c-0.1,0.3-0.2,0.7-0.3,1l1.8,1.4c-0.2,0.3-0.4,0.6-0.6,0.9
					l1.4,1.8c-0.2,0.3-0.5,0.5-0.8,0.7l0.8,2.1c-0.3,0.2-0.6,0.4-1,0.5l0.3,2.2c-0.3,0.1-0.7,0.2-1.1,0.3L98.7,49
					c-0.1,0-0.2,0-0.4,0c-0.2,0-0.5,0-0.7,0l-0.9,2.1c-0.4-0.1-0.7-0.2-1.1-0.3l-1.4,1.8c-0.3-0.2-0.6-0.4-0.9-0.6l-1.8,1.4
					c-0.3-0.2-0.5-0.5-0.8-0.8L88.8,53.4z"/>
			</g>
		</g>
		<g>
			<circle class="st3" cx="90" cy="42.8" r="26.4"/>
			<path class="st2" d="M8.6,72.7V12.9h16.5l18,25.9V12.9h17.6v7.2c0,0-7.9,8.3-7.9,22.7s7.9,22.7,7.9,22.7v7.2H43.9L26.3,47.8v24.8
				H8.6z"/>
			<path class="st2" d="M124.4,42.8c0,19-15.4,34.4-34.4,34.4S55.6,61.8,55.6,42.8S71,8.4,90,8.4S124.4,23.8,124.4,42.8z M90,18.5
				c-13.4,0-24.3,10.9-24.3,24.3S76.6,67.1,90,67.1s24.3-10.9,24.3-24.3S103.4,18.5,90,18.5z"/>
			<circle class="st2" cx="90" cy="42.8" r="14.1"/>
			<path class="st2" d="M117.4,68c0,0,7.9,4.5,26.1,5.4c29.9-1,27.9-19.7,27.9-19.7c1.4-19-34-18.7-31.3-23.1
				c1.1-2.8,9.2-2.5,9.2-2.5c7.6-0.3,17.1,2.2,17.1,2.2l2.5-15.5c0,0-8.3-2.9-20.7-2.9c-22.3,0-27.1,10.1-27.1,10.1
				c7.8,9.3,6.1,24.5,6.1,24.5s4.2,1.9,9.4,3.5c4.8,1.3,12.3,2.8,12.5,5.1c-0.2,2.8-6.7,2.5-6.7,2.5c-10.1,0-17-3.2-17-3.2
				C123.2,61.8,117.4,68,117.4,68z"/>
			<g>
				<path class="st4" d="M91.5,35.6c0.6-0.7,0.9-1.6,0.9-1.6c0.1,1.3-0.5,3.2-0.5,3.2s0.5-0.5,1.3-1s1.3-1.3,1.3-1.3
					c-0.3,1.3-1.3,3-1.3,3s0.6-0.4,1.5-0.6s1.6-0.9,1.6-0.9c-0.6,1.2-2,2.6-2,2.6s0.7-0.2,1.6-0.2s1.8-0.5,1.8-0.5
					c-0.9,1-2.6,2-2.6,2s0.7,0,1.6,0.2c0.9,0.2,1.9,0,1.9,0c-1.1,0.7-3,1.2-3,1.2s0.7,0.2,1.5,0.6c0.8,0.4,1.8,0.5,1.8,0.5
					c-1.3,0.4-3.2,0.4-3.2,0.4s0.6,0.4,1.3,1s1.6,0.9,1.6,0.9c-1.3,0.1-3.2-0.5-3.2-0.5s0.5,0.5,1,1.3c0.5,0.8,1.3,1.3,1.3,1.3
					c-1.3-0.3-3-1.3-3-1.3s0.4,0.6,0.6,1.5c0.3,0.9,0.9,1.6,0.9,1.6c-1.2-0.6-2.6-2-2.6-2s0.2,0.7,0.2,1.6c0,0.9,0.5,1.8,0.5,1.8
					c-1-0.9-2-2.6-2-2.6s0,0.7-0.2,1.6s0,1.9,0,1.9c-0.7-1.1-1.2-3-1.2-3s-0.2,0.7-0.6,1.5s-0.5,1.8-0.5,1.8
					c-0.4-1.3-0.4-3.2-0.4-3.2s-0.4,0.6-1,1.3c-0.6,0.7-0.9,1.6-0.9,1.6c-0.1-1.3,0.5-3.2,0.5-3.2s-0.5,0.5-1.3,1s-1.3,1.3-1.3,1.3
					c0.3-1.3,1.3-3,1.3-3s-0.6,0.4-1.5,0.6s-1.6,0.9-1.6,0.9c0.6-1.2,2-2.6,2-2.6s-0.7,0.2-1.6,0.2c-0.9,0-1.8,0.5-1.8,0.5
					c0.9-1,2.6-2,2.6-2s-0.7,0-1.6-0.2c-0.9-0.2-1.9,0-1.9,0c1.1-0.7,3-1.2,3-1.2s-0.7-0.2-1.5-0.6c-0.8-0.4-1.8-0.5-1.8-0.5
					c1.3-0.4,3.2-0.4,3.2-0.4s-0.6-0.4-1.3-1s-1.6-0.9-1.6-0.9c1.3-0.1,3.2,0.5,3.2,0.5s-0.5-0.5-1-1.3c-0.5-0.8-1.3-1.3-1.3-1.3
					c1.3,0.3,3,1.3,3,1.3s-0.4-0.6-0.6-1.5s-0.9-1.6-0.9-1.6c1.2,0.6,2.6,2,2.6,2s-0.2-0.7-0.2-1.6c0-0.9-0.5-1.8-0.5-1.8
					c1,0.9,2,2.6,2,2.6s0-0.7,0.2-1.6s0-1.9,0-1.9c0.7,1.1,1.2,3,1.2,3s0.2-0.7,0.6-1.5s0.5-1.8,0.5-1.8c0.4,1.3,0.4,3.2,0.4,3.2
					S90.9,36.3,91.5,35.6z"/>
			</g>
		</g>
	</g>
	<g>
	</g>
	<g>
	</g>
	<g>
	</g>
	<g>
	</g>
	<g>
	</g>
	<g>
	</g>
	<g>
	</g>
	<g>
	</g>
	<g>
	</g>
	<g>
	</g>
	<g>
	</g>
	<g>
	</g>
	<g>
	</g>
	<g>
	</g>
	<g>
	</g>
</g>
</svg>
