<?xml version="1.0" encoding="utf-8"?>
<!-- Generator: Adobe Illustrator 21.0.2, SVG Export Plug-In . SVG Version: 6.00 Build 0)  -->
<svg version="1.1" xmlns="http://www.w3.org/2000/svg" xmlns:xlink="http://www.w3.org/1999/xlink" x="0px" y="0px"
	 viewBox="0 0 180 138.6" style="enable-background:new 0 0 180 138.6;" xml:space="preserve">
<style type="text/css">
	.st0{fill:none;}
	.st1{fill:#FFFFFF;stroke:#4986FF;stroke-width:0.5;stroke-miterlimit:10;}
	.st2{fill:#4986FF;}
	.st3{fill:#FFFFFF;}
	.st4{fill:#FBB414;}
</style>
<g id="Layer_3">
</g>
<g id="Layer_2">
	<g>
		<rect x="19.1" y="91.3" class="st0" width="142.5" height="45.3"/>
		<path class="st1" d="M45.8,108.4l0-10.7l-5.3,8.8h-1.3l-5.3-8.7v10.5H31V92.3h2.5l6.4,10.7l6.3-10.7h2.5l0,16.1H45.8z"/>
		<path class="st1" d="M64.8,105.9v2.5H52.8V92.3h11.8v2.5h-8.8V99h7.8v2.5h-7.8v4.4H64.8z"/>
		<path class="st1" d="M66.7,106.7l1-2.3c1.3,1,3.3,1.8,5.3,1.8c2.5,0,3.6-0.9,3.6-2.1c0-3.5-9.6-1.2-9.6-7.2c0-2.6,2.1-4.8,6.5-4.8
			c1.9,0,4,0.5,5.4,1.4l-0.9,2.3c-1.4-0.9-3-1.3-4.4-1.3c-2.5,0-3.5,1-3.5,2.2c0,3.4,9.5,1.2,9.5,7.1c0,2.6-2.1,4.8-6.5,4.8
			C70.5,108.6,68,107.8,66.7,106.7z"/>
		<path class="st1" d="M92.8,104.7h-8l-1.6,3.7h-3.1l7.2-16.1h2.9l7.3,16.1h-3.1L92.8,104.7z M91.8,102.3l-3-7l-3,7H91.8z"/>
		<path class="st1" d="M98,106.7l1-2.3c1.3,1,3.3,1.8,5.3,1.8c2.5,0,3.6-0.9,3.6-2.1c0-3.5-9.6-1.2-9.6-7.2c0-2.6,2.1-4.8,6.5-4.8
			c1.9,0,4,0.5,5.4,1.4l-0.9,2.3c-1.4-0.9-3-1.3-4.4-1.3c-2.5,0-3.5,1-3.5,2.2c0,3.4,9.5,1.2,9.5,7.1c0,2.6-2.1,4.8-6.5,4.8
			C101.9,108.6,99.4,107.8,98,106.7z"/>
		<path class="st1" d="M119.9,92.3h7c5.2,0,8.8,3.2,8.8,8c0,4.8-3.6,8-8.8,8h-7V92.3z M126.8,105.9c3.6,0,5.9-2.2,5.9-5.5
			c0-3.3-2.3-5.5-5.9-5.5h-3.9v11H126.8z"/>
		<path class="st1" d="M150.8,105.9v2.5h-12.1V92.3h11.8v2.5h-8.8V99h7.8v2.5h-7.8v4.4H150.8z"/>
		<path class="st1" d="M34,132.3h-8l-1.6,3.7h-3.1l7.2-16.1h2.9l7.3,16.1h-3.1L34,132.3z M33,129.9l-3-7l-3,7H33z"/>
		<path class="st1" d="M43.6,122.4v4.9h7.8v2.5h-7.8v6.2h-3v-16.1h11.8v2.5H43.6z"/>
		<path class="st1" d="M55.1,119.9h3V136h-3V119.9z"/>
		<path class="st1" d="M62.3,119.9h3v13.6h8.4v2.5H62.3V119.9z"/>
		<path class="st1" d="M75.9,119.9h3V136h-3V119.9z"/>
		<path class="st1" d="M93.6,132.3h-8l-1.6,3.7h-3.1l7.2-16.1H91l7.3,16.1h-3.1L93.6,132.3z M92.6,129.9l-3-7l-3,7H92.6z"/>
		<path class="st1" d="M98.8,127.9c0-4.8,3.7-8.3,8.6-8.3c2.6,0,4.9,0.9,6.4,2.7l-1.9,1.8c-1.2-1.3-2.6-1.9-4.3-1.9
			c-3.3,0-5.7,2.3-5.7,5.7c0,3.3,2.4,5.7,5.7,5.7c1.7,0,3.1-0.6,4.3-1.9l1.9,1.8c-1.5,1.7-3.7,2.7-6.4,2.7
			C102.5,136.2,98.8,132.7,98.8,127.9z"/>
		<path class="st1" d="M116.5,119.9h3V136h-3V119.9z"/>
		<path class="st1" d="M122.5,127.9c0-4.8,3.7-8.3,8.7-8.3c5,0,8.7,3.5,8.7,8.3c0,4.8-3.7,8.3-8.7,8.3
			C126.2,136.2,122.5,132.7,122.5,127.9z M136.9,127.9c0-3.3-2.4-5.7-5.7-5.7c-3.2,0-5.7,2.4-5.7,5.7c0,3.3,2.4,5.7,5.7,5.7
			C134.4,133.6,136.9,131.2,136.9,127.9z M132.4,115.4h3.4l-4,3.2h-2.5L132.4,115.4z"/>
		<path class="st1" d="M157.2,119.9V136h-2.5l-8.9-10.9V136h-3v-16.1h2.5l8.9,10.9v-10.9H157.2z"/>
	</g>
	<g>
		<g>
			<path class="st2" d="M90,73.5c-17.3,0-31.4-14.1-31.4-31.4c0-17.3,14.1-31.4,31.4-31.4c17.3,0,31.4,14.1,31.4,31.4
				C121.4,59.4,107.3,73.5,90,73.5z"/>
			<path class="st2" d="M41.3,77L31.3,62.8V77H3.6V7.2h24.2l10.4,15v-15h27.6v14.2l-1.4,1.4c-0.2,0.3-6.5,7.2-6.5,19.2
				c0,12.1,6.3,19,6.6,19.3l1.3,1.4l0,2V77H41.3z"/>
			<path class="st2" d="M90,81.5c-21.7,0-39.4-17.7-39.4-39.4C50.6,20.4,68.3,2.7,90,2.7c21.7,0,39.4,17.7,39.4,39.4
				C129.4,63.8,111.7,81.5,90,81.5z M90,22.8c-10.7,0-19.3,8.7-19.3,19.3S79.3,61.4,90,61.4c10.7,0,19.3-8.7,19.3-19.3
				S100.7,22.8,90,22.8z"/>
			<path class="st2" d="M90,61.2c-10.5,0-19.1-8.6-19.1-19.1S79.5,23,90,23c10.5,0,19.1,8.6,19.1,19.1S100.5,61.2,90,61.2z"/>
			<path class="st2" d="M143.2,77.7c-18.9-0.9-27.4-5.5-28.3-6.1l-5.4-3.1l4.3-4.6c0,0,5-5.5,6.8-11.6l1.4-4.9l0.2-2.3
				c0-0.1,1.3-13.2-5-20.7l-2.1-2.5l1.4-2.9c0.6-1.3,6.8-12.9,31.6-12.9c13.1,0,22,3,22.4,3.2l4,1.4l-4.1,25.1l-5.3-1.4
				c0,0-0.6-0.2-1.6-0.4c7.2,3.6,13.4,9.3,12.9,19c0.1,2,0,8.4-5.3,14.4c-5.6,6.4-14.8,9.9-27.5,10.3l-0.2,0L143.2,77.7z"/>
			<g>
				<path class="st2" d="M91,53.4c-0.3-0.3-0.6-0.6-0.9-1L88,53.2c-0.2-0.4-0.5-0.8-0.7-1.2l-2.2,0.3c-0.1-0.4-0.2-0.9-0.3-1.3
					l-2.2-0.3c0-0.4,0-0.9,0-1.3l-2.1-0.9c0.1-0.4,0.2-0.9,0.4-1.3l-1.8-1.4c0.2-0.4,0.5-0.8,0.7-1.2l-1.4-1.8
					c0.3-0.3,0.6-0.6,1-0.9l-0.9-2.1c0.4-0.2,0.8-0.5,1.2-0.7L79.6,37c0.4-0.1,0.9-0.2,1.3-0.3l0.3-2.2c0.1,0,0.3,0,0.4,0
					c0.3,0,0.6,0,1,0l0.9-2.1c0.4,0.1,0.9,0.2,1.3,0.4l1.4-1.8c0.4,0.2,0.8,0.5,1.2,0.7l1.8-1.4c0.3,0.3,0.6,0.6,0.9,1l2.1-0.8
					c0.2,0.4,0.5,0.8,0.7,1.2l2.2-0.3c0.1,0.4,0.2,0.9,0.3,1.3l2.2,0.3c0,0.4,0,0.9,0,1.4l2.1,0.9c-0.1,0.4-0.2,0.9-0.4,1.3l1.8,1.4
					c-0.2,0.4-0.5,0.8-0.7,1.2l1.4,1.8c-0.3,0.3-0.6,0.6-1,0.9l0.9,2.1c-0.4,0.2-0.8,0.5-1.2,0.6l0.3,2.2c-0.4,0.1-0.9,0.2-1.3,0.3
					l-0.3,2.2c-0.1,0-0.3,0-0.4,0c-0.3,0-0.6,0-0.9,0l-0.9,2.1c-0.4-0.1-0.9-0.2-1.3-0.4l-1.4,1.8c-0.4-0.2-0.8-0.5-1.2-0.7L91,53.4
					z"/>
			</g>
		</g>
		<g>
			<path class="st3" d="M90,72.5c-16.8,0-30.4-13.6-30.4-30.4c0-16.8,13.6-30.4,30.4-30.4c16.8,0,30.4,13.6,30.4,30.4
				C120.4,58.9,106.8,72.5,90,72.5z"/>
			<path class="st3" d="M41.9,76L30.3,59.7V76H4.6V8.2h22.6l11.9,17.2V8.2h25.6V21l-1.1,1.2c-0.3,0.3-6.8,7.4-6.8,19.9
				c0,12.7,6.7,19.9,6.8,19.9l1.1,1.2V76H41.9z"/>
			<path class="st3" d="M90,80.5c-21.2,0-38.4-17.2-38.4-38.4S68.8,3.7,90,3.7c21.2,0,38.4,17.2,38.4,38.4S111.2,80.5,90,80.5z
				 M90,21.8c-11.2,0-20.3,9.1-20.3,20.3S78.8,62.4,90,62.4s20.3-9.1,20.3-20.3S101.2,21.8,90,21.8z"/>
			<path class="st3" d="M90,60.2c-10,0-18.1-8.1-18.1-18.1S80,24,90,24c10,0,18.1,8.1,18.1,18.1S100,60.2,90,60.2z"/>
			<path class="st3" d="M143.2,76.7c-18.9-0.9-27.5-5.7-27.9-5.9l-4.4-2.5l3.4-3.7c0,0,5.2-5.6,7-12l1.3-4.5l0.1,0l0.3-2.8
				c0-0.1,1.4-13.6-5.2-21.4l-1.6-2l1.1-2.3c0.6-1.3,6.5-12.4,30.7-12.4c13,0,21.7,3,22.1,3.1l3.2,1.1l-3.8,23.1l-4.3-1.1
				c-0.1,0-5.3-1.4-10.8-1.9c9.7,3.1,21.6,8.7,20.8,21.5c0.1,1.7,0,8-5,13.8c-5.4,6.2-14.4,9.5-26.8,10l-0.2,0L143.2,76.7z"/>
			<g>
				<path class="st3" d="M88.8,52.7c-0.2-0.3-0.4-0.6-0.5-0.9L86.1,52c-0.1-0.3-0.2-0.7-0.3-1.1l-2.2-0.3c0-0.4,0-0.7,0-1.1
					l-2.1-0.9c0.1-0.3,0.2-0.7,0.3-1l-1.8-1.4c0.2-0.3,0.4-0.6,0.6-0.9l-1.4-1.8c0.2-0.3,0.5-0.5,0.8-0.7l-0.8-2.1
					c0.3-0.2,0.6-0.4,0.9-0.5L79.9,38c0.3-0.1,0.7-0.2,1.1-0.3l0.3-2.2c0.1,0,0.2,0,0.4,0c0.2,0,0.5,0,0.7,0l0.9-2.1
					c0.3,0.1,0.7,0.2,1,0.3l1.4-1.8c0.3,0.2,0.6,0.4,0.9,0.6l1.8-1.4c0.3,0.2,0.5,0.5,0.8,0.8l2.1-0.9c0.2,0.3,0.4,0.6,0.5,0.9
					l2.2-0.3c0.1,0.3,0.2,0.7,0.3,1.1l2.2,0.3c0,0.4,0,0.7,0,1.1l2.1,0.9c-0.1,0.3-0.2,0.7-0.3,1l1.8,1.4c-0.2,0.3-0.4,0.6-0.6,0.9
					l1.4,1.8c-0.2,0.3-0.5,0.5-0.8,0.7l0.8,2.1c-0.3,0.2-0.6,0.4-1,0.5l0.3,2.2c-0.3,0.1-0.7,0.2-1.1,0.3l-0.3,2.2
					c-0.1,0-0.2,0-0.4,0c-0.2,0-0.5,0-0.7,0l-0.9,2.1c-0.4-0.1-0.7-0.2-1.1-0.3l-1.4,1.8c-0.3-0.2-0.6-0.4-0.9-0.6l-1.8,1.4
					c-0.3-0.2-0.5-0.5-0.8-0.8L88.8,52.7z"/>
			</g>
		</g>
		<g>
			<circle class="st3" cx="90" cy="42.1" r="26.4"/>
			<path class="st2" d="M8.6,72V12.2h16.5l18,25.9V12.2h17.6v7.2c0,0-7.9,8.3-7.9,22.7s7.9,22.7,7.9,22.7V72H43.9L26.3,47.1V72H8.6z
				"/>
			<path class="st2" d="M124.4,42.1c0,19-15.4,34.4-34.4,34.4S55.6,61.1,55.6,42.1S71,7.7,90,7.7S124.4,23.1,124.4,42.1z M90,17.8
				c-13.4,0-24.3,10.9-24.3,24.3S76.6,66.4,90,66.4s24.3-10.9,24.3-24.3S103.4,17.8,90,17.8z"/>
			<circle class="st2" cx="90" cy="42.1" r="14.1"/>
			<path class="st2" d="M117.4,67.3c0,0,7.9,4.5,26.1,5.4c29.9-1,27.9-19.7,27.9-19.7c1.4-19-34-18.7-31.3-23.1
				c1.1-2.8,9.2-2.5,9.2-2.5c7.6-0.3,17.1,2.2,17.1,2.2l2.5-15.5c0,0-8.3-2.9-20.7-2.9c-22.3,0-27.1,10.1-27.1,10.1
				c7.8,9.3,6.1,24.5,6.1,24.5s4.2,1.9,9.4,3.5c4.8,1.3,12.3,2.8,12.5,5.1c-0.2,2.8-6.7,2.5-6.7,2.5c-10.1,0-17-3.2-17-3.2
				C123.2,61.1,117.4,67.3,117.4,67.3z"/>
			<g>
				<path class="st4" d="M91.5,34.9c0.6-0.7,0.9-1.6,0.9-1.6c0.1,1.3-0.5,3.2-0.5,3.2s0.5-0.5,1.3-1s1.3-1.3,1.3-1.3
					c-0.3,1.3-1.3,3-1.3,3s0.6-0.4,1.5-0.6s1.6-0.9,1.6-0.9c-0.6,1.2-2,2.6-2,2.6s0.7-0.2,1.6-0.2c0.9,0,1.8-0.5,1.8-0.5
					c-0.9,1-2.6,2-2.6,2s0.7,0,1.6,0.2c0.9,0.2,1.9,0,1.9,0c-1.1,0.7-3,1.2-3,1.2s0.7,0.2,1.5,0.6c0.8,0.4,1.8,0.5,1.8,0.5
					c-1.3,0.4-3.2,0.4-3.2,0.4s0.6,0.4,1.3,1s1.6,0.9,1.6,0.9c-1.3,0.1-3.2-0.5-3.2-0.5s0.5,0.5,1,1.3s1.3,1.3,1.3,1.3
					c-1.3-0.3-3-1.3-3-1.3s0.4,0.6,0.6,1.5s0.9,1.6,0.9,1.6c-1.2-0.6-2.6-2-2.6-2s0.2,0.7,0.2,1.6c0,0.9,0.5,1.8,0.5,1.8
					c-1-0.9-2-2.6-2-2.6s0,0.7-0.2,1.6s0,1.9,0,1.9c-0.7-1.1-1.2-3-1.2-3s-0.2,0.7-0.6,1.5s-0.5,1.8-0.5,1.8
					c-0.4-1.3-0.4-3.2-0.4-3.2s-0.4,0.6-1,1.3c-0.6,0.7-0.9,1.6-0.9,1.6c-0.1-1.3,0.5-3.2,0.5-3.2s-0.5,0.5-1.3,1s-1.3,1.3-1.3,1.3
					c0.3-1.3,1.3-3,1.3-3s-0.6,0.4-1.5,0.6s-1.6,0.9-1.6,0.9c0.6-1.2,2-2.6,2-2.6s-0.7,0.2-1.6,0.2c-0.9,0-1.8,0.5-1.8,0.5
					c0.9-1,2.6-2,2.6-2s-0.7,0-1.6-0.2c-0.9-0.2-1.9,0-1.9,0c1.1-0.7,3-1.2,3-1.2s-0.7-0.2-1.5-0.6c-0.8-0.4-1.8-0.5-1.8-0.5
					c1.3-0.4,3.2-0.4,3.2-0.4s-0.6-0.4-1.3-1c-0.7-0.6-1.6-0.9-1.6-0.9c1.3-0.1,3.2,0.5,3.2,0.5s-0.5-0.5-1-1.3
					c-0.5-0.8-1.3-1.3-1.3-1.3c1.3,0.3,3,1.3,3,1.3S85,38,84.7,37.1s-0.9-1.6-0.9-1.6c1.2,0.6,2.6,2,2.6,2s-0.2-0.7-0.2-1.6
					c0-0.9-0.5-1.8-0.5-1.8c1,0.9,2,2.6,2,2.6s0-0.7,0.2-1.6s0-1.9,0-1.9c0.7,1.1,1.2,3,1.2,3s0.2-0.7,0.6-1.5
					c0.4-0.8,0.5-1.8,0.5-1.8c0.4,1.3,0.4,3.2,0.4,3.2S90.9,35.6,91.5,34.9z"/>
			</g>
		</g>
	</g>
	<g>
	</g>
	<g>
	</g>
	<g>
	</g>
	<g>
	</g>
	<g>
	</g>
	<g>
	</g>
	<g>
	</g>
	<g>
	</g>
	<g>
	</g>
	<g>
	</g>
	<g>
	</g>
	<g>
	</g>
	<g>
	</g>
	<g>
	</g>
	<g>
	</g>
</g>
</svg>
