<?xml version="1.0" encoding="utf-8"?>
<!-- Generator: Adobe Illustrator 21.0.2, SVG Export Plug-In . SVG Version: 6.00 Build 0)  -->
<svg version="1.1" id="Layer_2" xmlns="http://www.w3.org/2000/svg" xmlns:xlink="http://www.w3.org/1999/xlink" x="0px" y="0px"
	 viewBox="0 0 175 80" style="enable-background:new 0 0 175 80;" xml:space="preserve">
<style type="text/css">
	.st0{fill:#FFFFFF;}
	.st1{fill:#4986FF;}
	.st2{fill:#FBB414;}
</style>
<g>
	<g>
		<path class="st0" d="M87.5,70.4c-16.8,0-30.4-13.6-30.4-30.4c0-16.8,13.6-30.4,30.4-30.4c16.8,0,30.4,13.6,30.4,30.4
			C117.9,56.8,104.3,70.4,87.5,70.4z"/>
		<path class="st0" d="M39.4,73.9L27.8,57.6v16.3H2.1V6.1h22.6l11.9,17.2V6.1h25.6v12.8l-1.1,1.2c-0.3,0.3-6.8,7.4-6.8,19.9
			c0,12.7,6.7,19.9,6.8,19.9l1.1,1.2v12.8H39.4z"/>
		<path class="st0" d="M87.5,78.4c-21.2,0-38.4-17.2-38.4-38.4S66.3,1.6,87.5,1.6c21.2,0,38.4,17.2,38.4,38.4S108.7,78.4,87.5,78.4z
			 M87.5,19.7c-11.2,0-20.3,9.1-20.3,20.3c0,11.2,9.1,20.3,20.3,20.3s20.3-9.1,20.3-20.3C107.8,28.8,98.7,19.7,87.5,19.7z"/>
		<path class="st0" d="M87.5,58.1c-10,0-18.1-8.1-18.1-18.1c0-10,8.1-18.1,18.1-18.1c10,0,18.1,8.1,18.1,18.1
			C105.6,50,97.5,58.1,87.5,58.1z"/>
		<path class="st0" d="M140.7,74.6c-18.9-0.9-27.5-5.7-27.9-5.9l-4.4-2.5l3.4-3.7c0,0,5.2-5.6,7-12l1.3-4.5l0.1,0l0.3-2.8
			c0-0.1,1.4-13.6-5.2-21.4l-1.6-2l1.1-2.3c0.6-1.3,6.5-12.4,30.7-12.4c13,0,21.7,3,22.1,3.1l3.2,1.1l-3.8,23.1l-4.3-1.1
			c-0.1,0-5.3-1.4-10.8-1.9c9.7,3.1,21.6,8.7,20.8,21.5c0.1,1.7,0,8-5,13.8c-5.4,6.2-14.4,9.5-26.8,10l-0.2,0L140.7,74.6z M124.6,48
			C124.7,48,124.7,48,124.6,48z"/>
		<g>
			<path class="st0" d="M86.3,50.6c-0.2-0.3-0.4-0.6-0.5-1l-2.2,0.3c-0.1-0.3-0.2-0.7-0.3-1l-2.2-0.3c0-0.4,0-0.7,0-1.1l-2.1-0.9
				c0.1-0.3,0.2-0.7,0.3-1l-1.8-1.4c0.2-0.3,0.4-0.6,0.6-0.9l-1.4-1.8c0.2-0.3,0.5-0.5,0.8-0.7l-0.8-2.1c0.3-0.2,0.6-0.4,0.9-0.5
				l-0.3-2.2c0.3-0.1,0.7-0.2,1.1-0.3l0.3-2.2c0.1,0,0.2,0,0.4,0c0.2,0,0.5,0,0.7,0l0.9-2.1c0.3,0.1,0.7,0.2,1,0.3l1.4-1.8
				c0.3,0.2,0.6,0.4,0.9,0.6l1.8-1.4c0.3,0.2,0.5,0.5,0.8,0.8l2.1-0.9c0.2,0.3,0.4,0.6,0.5,1l2.2-0.3c0.1,0.3,0.2,0.7,0.3,1.1
				l2.2,0.3c0,0.4,0,0.7,0,1.1l2.1,0.9c-0.1,0.3-0.2,0.7-0.3,1l1.8,1.4c-0.2,0.3-0.4,0.6-0.6,0.9l1.4,1.8c-0.2,0.3-0.5,0.5-0.8,0.7
				l0.8,2.1c-0.3,0.2-0.6,0.4-1,0.5l0.3,2.2c-0.3,0.1-0.7,0.2-1.1,0.3l-0.3,2.2c-0.1,0-0.2,0-0.4,0c-0.2,0-0.5,0-0.7,0l-0.9,2.1
				c-0.4-0.1-0.7-0.2-1.1-0.3l-1.4,1.8c-0.3-0.2-0.6-0.4-0.9-0.6l-1.8,1.4c-0.3-0.2-0.5-0.5-0.8-0.8L86.3,50.6z"/>
		</g>
	</g>
	<g>
		<circle class="st0" cx="87.5" cy="40" r="26.4"/>
		<path class="st1" d="M6.1,69.9V10.1h16.5l18,25.9V10.1h17.6v7.2c0,0-7.9,8.3-7.9,22.7s7.9,22.7,7.9,22.7v7.2H41.4L23.8,45v24.8
			H6.1z"/>
		<path class="st1" d="M121.9,40c0,19-15.4,34.4-34.4,34.4S53.1,59,53.1,40S68.5,5.6,87.5,5.6S121.9,21,121.9,40z M87.5,15.7
			c-13.4,0-24.3,10.9-24.3,24.3s10.9,24.3,24.3,24.3s24.3-10.9,24.3-24.3S100.9,15.7,87.5,15.7z"/>
		<circle class="st1" cx="87.5" cy="40" r="14.1"/>
		<path class="st1" d="M114.9,65.2c0,0,7.9,4.5,26.1,5.4c29.9-1,27.9-19.7,27.9-19.7c1.4-19-34-18.7-31.3-23.1
			c1.1-2.8,9.2-2.5,9.2-2.5c7.6-0.3,17.1,2.2,17.1,2.2l2.5-15.5c0,0-8.3-2.9-20.7-2.9c-22.3,0-27.1,10.1-27.1,10.1
			c7.8,9.3,6.1,24.5,6.1,24.5s4.2,1.9,9.4,3.5c4.8,1.3,12.3,2.8,12.5,5.1c-0.2,2.8-6.7,2.5-6.7,2.5c-10.1,0-17-3.2-17-3.2
			C120.7,59,114.9,65.2,114.9,65.2z"/>
		<g>
			<path class="st2" d="M89,32.9c0.6-0.7,0.9-1.6,0.9-1.6c0.1,1.3-0.5,3.2-0.5,3.2s0.5-0.5,1.3-1s1.3-1.3,1.3-1.3
				c-0.3,1.3-1.3,3-1.3,3s0.6-0.4,1.5-0.6s1.6-0.9,1.6-0.9c-0.6,1.2-2,2.6-2,2.6s0.7-0.2,1.6-0.2c0.9,0,1.8-0.5,1.8-0.5
				c-0.9,1-2.6,2-2.6,2s0.7,0,1.6,0.2c0.9,0.2,1.9,0,1.9,0c-1.1,0.7-3,1.2-3,1.2s0.7,0.2,1.5,0.6c0.8,0.4,1.8,0.5,1.8,0.5
				c-1.3,0.4-3.2,0.4-3.2,0.4s0.6,0.4,1.3,1c0.7,0.6,1.6,0.9,1.6,0.9c-1.3,0.1-3.2-0.5-3.2-0.5s0.5,0.5,1,1.3
				c0.5,0.8,1.3,1.3,1.3,1.3c-1.3-0.3-3-1.3-3-1.3s0.4,0.6,0.6,1.5s0.9,1.6,0.9,1.6c-1.2-0.6-2.6-2-2.6-2s0.2,0.7,0.2,1.6
				c0,0.9,0.5,1.8,0.5,1.8c-1-0.9-2-2.6-2-2.6s0,0.7-0.2,1.6s0,1.9,0,1.9c-0.7-1.1-1.2-3-1.2-3s-0.2,0.7-0.6,1.5s-0.5,1.8-0.5,1.8
				C87,47.5,87,45.5,87,45.5s-0.4,0.6-1,1.3c-0.6,0.7-0.9,1.6-0.9,1.6c-0.1-1.3,0.5-3.2,0.5-3.2s-0.5,0.5-1.3,1S83,47.5,83,47.5
				c0.3-1.3,1.3-3,1.3-3s-0.6,0.4-1.5,0.6s-1.6,0.9-1.6,0.9c0.6-1.2,2-2.6,2-2.6s-0.7,0.2-1.6,0.2s-1.8,0.5-1.8,0.5
				c0.9-1,2.6-2,2.6-2s-0.7,0-1.6-0.2c-0.9-0.2-1.9,0-1.9,0c1.1-0.7,3-1.2,3-1.2s-0.7-0.2-1.5-0.6c-0.8-0.4-1.8-0.5-1.8-0.5
				c1.3-0.4,3.2-0.4,3.2-0.4s-0.6-0.4-1.3-1s-1.6-0.9-1.6-0.9c1.3-0.1,3.2,0.5,3.2,0.5s-0.5-0.5-1-1.3s-1.3-1.3-1.3-1.3
				c1.3,0.3,3,1.3,3,1.3s-0.4-0.6-0.6-1.5c-0.3-0.9-0.9-1.6-0.9-1.6c1.2,0.6,2.6,2,2.6,2s-0.2-0.7-0.2-1.6c0-0.9-0.5-1.8-0.5-1.8
				c1,0.9,2,2.6,2,2.6s0-0.7,0.2-1.6s0-1.9,0-1.9c0.7,1.1,1.2,3,1.2,3s0.2-0.7,0.6-1.5s0.5-1.8,0.5-1.8c0.4,1.3,0.4,3.2,0.4,3.2
				S88.4,33.5,89,32.9z"/>
		</g>
	</g>
</g>
<g>
</g>
<g>
</g>
<g>
</g>
<g>
</g>
<g>
</g>
<g>
</g>
<g>
</g>
<g>
</g>
<g>
</g>
<g>
</g>
<g>
</g>
<g>
</g>
<g>
</g>
<g>
</g>
<g>
</g>
</svg>
