<?xml version="1.0" encoding="utf-8"?>
<!-- Generator: Adobe Illustrator 21.0.2, SVG Export Plug-In . SVG Version: 6.00 Build 0)  -->
<svg version="1.1" id="Layer_2" xmlns="http://www.w3.org/2000/svg" xmlns:xlink="http://www.w3.org/1999/xlink" x="0px" y="0px"
	 viewBox="0 0 172 144" style="enable-background:new 0 0 172 144;" xml:space="preserve">
<style type="text/css">
	.st0{fill:none;}
	.st1{fill:#FFFFFF;}
	.st2{fill:#4986FF;}
	.st3{fill:#FBB414;}
</style>
<g>
	<rect x="15.1" y="88.4" class="st0" width="142.5" height="45.3"/>
	<path class="st1" d="M41.8,105.5l0-10.7l-5.3,8.8h-1.3L29.8,95v10.5H27V89.4h2.5l6.4,10.7l6.3-10.7h2.5l0,16.1H41.8z"/>
	<path class="st1" d="M60.8,103v2.5H48.8V89.4h11.8v2.5h-8.8v4.2h7.8v2.5h-7.8v4.4H60.8z"/>
	<path class="st1" d="M62.7,103.8l1-2.3c1.3,1,3.3,1.8,5.3,1.8c2.5,0,3.6-0.9,3.6-2.1c0-3.5-9.6-1.2-9.6-7.2c0-2.6,2.1-4.8,6.5-4.8
		c1.9,0,4,0.5,5.4,1.4l-0.9,2.3c-1.4-0.9-3-1.3-4.4-1.3c-2.5,0-3.5,1-3.5,2.2c0,3.4,9.5,1.2,9.5,7.1c0,2.6-2.1,4.8-6.5,4.8
		C66.5,105.7,64,105,62.7,103.8z"/>
	<path class="st1" d="M88.8,101.8h-8l-1.6,3.7h-3.1l7.2-16.1h2.9l7.3,16.1h-3.1L88.8,101.8z M87.8,99.4l-3-7l-3,7H87.8z"/>
	<path class="st1" d="M94,103.8l1-2.3c1.3,1,3.3,1.8,5.3,1.8c2.5,0,3.6-0.9,3.6-2.1c0-3.5-9.6-1.2-9.6-7.2c0-2.6,2.1-4.8,6.5-4.8
		c1.9,0,4,0.5,5.4,1.4l-0.9,2.3c-1.4-0.9-3-1.3-4.4-1.3c-2.5,0-3.5,1-3.5,2.2c0,3.4,9.5,1.2,9.5,7.1c0,2.6-2.1,4.8-6.5,4.8
		C97.9,105.7,95.4,105,94,103.8z"/>
	<path class="st1" d="M115.9,89.4h7c5.2,0,8.8,3.2,8.8,8c0,4.8-3.6,8-8.8,8h-7V89.4z M122.8,103c3.6,0,5.9-2.2,5.9-5.5
		c0-3.3-2.3-5.5-5.9-5.5h-3.9v11H122.8z"/>
	<path class="st1" d="M146.8,103v2.5h-12.1V89.4h11.8v2.5h-8.8v4.2h7.8v2.5h-7.8v4.4H146.8z"/>
	<path class="st1" d="M30,129.4h-8l-1.6,3.7h-3.1l7.2-16.1h2.9l7.3,16.1h-3.1L30,129.4z M29,127l-3-7l-3,7H29z"/>
	<path class="st1" d="M39.6,119.5v4.9h7.8v2.5h-7.8v6.2h-3V117h11.8v2.5H39.6z"/>
	<path class="st1" d="M51.1,117h3v16.1h-3V117z"/>
	<path class="st1" d="M58.3,117h3v13.6h8.4v2.5H58.3V117z"/>
	<path class="st1" d="M71.9,117h3v16.1h-3V117z"/>
	<path class="st1" d="M89.6,129.4h-8l-1.6,3.7h-3.1l7.2-16.1H87l7.3,16.1h-3.1L89.6,129.4z M88.6,127l-3-7l-3,7H88.6z"/>
	<path class="st1" d="M94.8,125.1c0-4.8,3.7-8.3,8.6-8.3c2.6,0,4.9,0.9,6.4,2.7l-1.9,1.8c-1.2-1.3-2.6-1.9-4.3-1.9
		c-3.3,0-5.7,2.3-5.7,5.7c0,3.3,2.4,5.7,5.7,5.7c1.7,0,3.1-0.6,4.3-1.9l1.9,1.8c-1.5,1.7-3.7,2.7-6.4,2.7
		C98.5,133.3,94.8,129.9,94.8,125.1z"/>
	<path class="st1" d="M112.5,117h3v16.1h-3V117z"/>
	<path class="st1" d="M118.5,125.1c0-4.8,3.7-8.3,8.7-8.3c5,0,8.7,3.5,8.7,8.3c0,4.8-3.7,8.3-8.7,8.3
		C122.2,133.3,118.5,129.8,118.5,125.1z M132.9,125.1c0-3.3-2.4-5.7-5.7-5.7c-3.2,0-5.7,2.4-5.7,5.7c0,3.3,2.4,5.7,5.7,5.7
		C130.4,130.7,132.9,128.3,132.9,125.1z M128.4,112.5h3.4l-4,3.2h-2.5L128.4,112.5z"/>
	<path class="st1" d="M153.2,117v16.1h-2.5l-8.9-10.9v10.9h-3V117h2.5l8.9,10.9V117H153.2z"/>
</g>
<g>
	<g>
		<path class="st1" d="M86,69.6c-16.8,0-30.4-13.6-30.4-30.4C55.6,22.4,69.2,8.8,86,8.8c16.8,0,30.4,13.6,30.4,30.4
			C116.4,56,102.8,69.6,86,69.6z"/>
		<path class="st1" d="M37.9,73.1L26.3,56.8v16.3H0.6V5.3h22.6l11.9,17.2V5.3h25.6v12.8l-1.1,1.2c-0.3,0.3-6.8,7.4-6.8,19.9
			c0,12.7,6.7,19.9,6.8,19.9l1.1,1.2v12.8H37.9z"/>
		<path class="st1" d="M86,77.6c-21.2,0-38.4-17.2-38.4-38.4S64.8,0.8,86,0.8c21.2,0,38.4,17.2,38.4,38.4S107.2,77.6,86,77.6z
			 M86,18.9c-11.2,0-20.3,9.1-20.3,20.3S74.8,59.5,86,59.5s20.3-9.1,20.3-20.3S97.2,18.9,86,18.9z"/>
		<path class="st1" d="M86,57.3c-10,0-18.1-8.1-18.1-18.1S76,21.1,86,21.1c10,0,18.1,8.1,18.1,18.1S96,57.3,86,57.3z"/>
		<path class="st1" d="M139.2,73.8c-18.9-0.9-27.5-5.7-27.9-5.9l-4.4-2.5l3.4-3.7c0,0,5.2-5.6,7-12l1.3-4.5l0.1,0l0.3-2.8
			c0-0.1,1.4-13.6-5.2-21.4l-1.6-2l1.1-2.3c0.6-1.3,6.5-12.4,30.7-12.4c13,0,21.7,3,22.1,3.1l3.2,1.1l-3.8,23.1l-4.3-1.1
			c-0.1,0-5.3-1.4-10.8-1.9c9.7,3.1,21.6,8.7,20.8,21.5c0.1,1.7,0,8-5,13.8c-5.4,6.2-14.4,9.5-26.8,10l-0.2,0L139.2,73.8z"/>
		<g>
			<path class="st1" d="M84.8,49.8c-0.2-0.3-0.4-0.6-0.5-0.9l-2.2,0.3c-0.1-0.3-0.2-0.7-0.3-1.1l-2.2-0.3c0-0.4,0-0.7,0-1.1
				l-2.1-0.9c0.1-0.3,0.2-0.7,0.3-1l-1.8-1.4c0.2-0.3,0.4-0.6,0.6-0.9l-1.4-1.8c0.2-0.3,0.5-0.5,0.8-0.7l-0.8-2.1
				c0.3-0.2,0.6-0.4,0.9-0.5l-0.3-2.2c0.3-0.1,0.7-0.2,1.1-0.3l0.3-2.2c0.1,0,0.2,0,0.4,0c0.2,0,0.5,0,0.7,0l0.9-2.1
				c0.3,0.1,0.7,0.2,1,0.3l1.4-1.8c0.3,0.2,0.6,0.4,0.9,0.6l1.8-1.4c0.3,0.2,0.5,0.5,0.8,0.8l2.1-0.9c0.2,0.3,0.4,0.6,0.5,0.9
				l2.2-0.3c0.1,0.3,0.2,0.7,0.3,1.1l2.2,0.3c0,0.4,0,0.7,0,1.1l2.1,0.9c-0.1,0.3-0.2,0.7-0.3,1l1.8,1.4c-0.2,0.3-0.4,0.6-0.6,0.9
				l1.4,1.8c-0.2,0.3-0.5,0.5-0.8,0.7l0.8,2.1c-0.3,0.2-0.6,0.4-1,0.5l0.3,2.2c-0.3,0.1-0.7,0.2-1.1,0.3l-0.3,2.2
				c-0.1,0-0.2,0-0.4,0c-0.2,0-0.5,0-0.7,0l-0.9,2.1c-0.4-0.1-0.7-0.2-1.1-0.3l-1.4,1.8c-0.3-0.2-0.6-0.4-0.9-0.6l-1.8,1.4
				c-0.3-0.2-0.5-0.5-0.8-0.8L84.8,49.8z"/>
		</g>
	</g>
	<g>
		<circle class="st1" cx="86" cy="39.2" r="26.4"/>
		<path class="st2" d="M4.6,69.1V9.3h16.5l18,25.9V9.3h17.6v7.2c0,0-7.9,8.3-7.9,22.7s7.9,22.7,7.9,22.7v7.2H39.9L22.3,44.2v24.8
			H4.6z"/>
		<path class="st2" d="M120.4,39.2c0,19-15.4,34.4-34.4,34.4S51.6,58.2,51.6,39.2S67,4.8,86,4.8S120.4,20.2,120.4,39.2z M86,14.9
			c-13.4,0-24.3,10.9-24.3,24.3S72.6,63.5,86,63.5s24.3-10.9,24.3-24.3S99.4,14.9,86,14.9z"/>
		<circle class="st2" cx="86" cy="39.2" r="14.1"/>
		<path class="st2" d="M113.4,64.4c0,0,7.9,4.5,26.1,5.4c29.9-1,27.9-19.7,27.9-19.7c1.4-19-34-18.7-31.3-23.1
			c1.1-2.8,9.2-2.5,9.2-2.5c7.6-0.3,17.1,2.2,17.1,2.2l2.5-15.5c0,0-8.3-2.9-20.7-2.9c-22.3,0-27.1,10.1-27.1,10.1
			c7.8,9.3,6.1,24.5,6.1,24.5s4.2,1.9,9.4,3.5c4.8,1.3,12.3,2.8,12.5,5.1c-0.2,2.8-6.7,2.5-6.7,2.5c-10.1,0-17-3.2-17-3.2
			C119.2,58.2,113.4,64.4,113.4,64.4z"/>
		<g>
			<path class="st3" d="M87.5,32.1c0.6-0.7,0.9-1.6,0.9-1.6c0.1,1.3-0.5,3.2-0.5,3.2s0.5-0.5,1.3-1s1.3-1.3,1.3-1.3
				c-0.3,1.3-1.3,3-1.3,3s0.6-0.4,1.5-0.6s1.6-0.9,1.6-0.9c-0.6,1.2-2,2.6-2,2.6s0.7-0.2,1.6-0.2c0.9,0,1.8-0.5,1.8-0.5
				c-0.9,1-2.6,2-2.6,2s0.7,0,1.6,0.2c0.9,0.2,1.9,0,1.9,0c-1.1,0.7-3,1.2-3,1.2s0.7,0.2,1.5,0.6c0.8,0.4,1.8,0.5,1.8,0.5
				c-1.3,0.4-3.2,0.4-3.2,0.4s0.6,0.4,1.3,1s1.6,0.9,1.6,0.9c-1.3,0.1-3.2-0.5-3.2-0.5s0.5,0.5,1,1.3s1.3,1.3,1.3,1.3
				c-1.3-0.3-3-1.3-3-1.3s0.4,0.6,0.6,1.5s0.9,1.6,0.9,1.6c-1.2-0.6-2.6-2-2.6-2s0.2,0.7,0.2,1.6c0,0.9,0.5,1.8,0.5,1.8
				c-1-0.9-2-2.6-2-2.6s0,0.7-0.2,1.6s0,1.9,0,1.9c-0.7-1.1-1.2-3-1.2-3s-0.2,0.7-0.6,1.5s-0.5,1.8-0.5,1.8
				c-0.4-1.3-0.4-3.2-0.4-3.2s-0.4,0.6-1,1.3c-0.6,0.7-0.9,1.6-0.9,1.6c-0.1-1.3,0.5-3.2,0.5-3.2s-0.5,0.5-1.3,1s-1.3,1.3-1.3,1.3
				c0.3-1.3,1.3-3,1.3-3s-0.6,0.4-1.5,0.6s-1.6,0.9-1.6,0.9c0.6-1.2,2-2.6,2-2.6s-0.7,0.2-1.6,0.2c-0.9,0-1.8,0.5-1.8,0.5
				c0.9-1,2.6-2,2.6-2s-0.7,0-1.6-0.2c-0.9-0.2-1.9,0-1.9,0c1.1-0.7,3-1.2,3-1.2s-0.7-0.2-1.5-0.6c-0.8-0.4-1.8-0.5-1.8-0.5
				c1.3-0.4,3.2-0.4,3.2-0.4s-0.6-0.4-1.3-1c-0.7-0.6-1.6-0.9-1.6-0.9c1.3-0.1,3.2,0.5,3.2,0.5s-0.5-0.5-1-1.3
				c-0.5-0.8-1.3-1.3-1.3-1.3c1.3,0.3,3,1.3,3,1.3s-0.4-0.6-0.6-1.5s-0.9-1.6-0.9-1.6c1.2,0.6,2.6,2,2.6,2S82.2,34,82.1,33
				c0-0.9-0.5-1.8-0.5-1.8c1,0.9,2,2.6,2,2.6s0-0.7,0.2-1.6c0.2-0.9,0-1.9,0-1.9c0.7,1.1,1.2,3,1.2,3s0.2-0.7,0.6-1.5
				s0.5-1.8,0.5-1.8c0.4,1.3,0.4,3.2,0.4,3.2S86.9,32.7,87.5,32.1z"/>
		</g>
	</g>
</g>
<g>
</g>
<g>
</g>
<g>
</g>
<g>
</g>
<g>
</g>
<g>
</g>
<g>
</g>
<g>
</g>
<g>
</g>
<g>
</g>
<g>
</g>
<g>
</g>
<g>
</g>
<g>
</g>
<g>
</g>
</svg>
