<?xml version="1.0" encoding="utf-8"?>
<!-- Generator: Adobe Illustrator 21.0.2, SVG Export Plug-In . SVG Version: 6.00 Build 0)  -->
<svg version="1.1" id="Layer_2" xmlns="http://www.w3.org/2000/svg" xmlns:xlink="http://www.w3.org/1999/xlink" x="0px" y="0px"
	 viewBox="0 0 162.7 68.8" style="enable-background:new 0 0 162.7 68.8;" xml:space="preserve">
<style type="text/css">
	.st0{fill:#FFFFFF;}
	.st1{fill:#4986FF;}
	.st2{fill:#FBB414;}
</style>
<g>
	<circle class="st0" cx="81.4" cy="34.4" r="26.4"/>
	<path class="st1" d="M0,64.3V4.5h16.5l18,25.9V4.5h17.6v7.2c0,0-7.9,8.3-7.9,22.7s7.9,22.7,7.9,22.7v7.2H35.3L17.6,39.4v24.8H0z"/>
	<path class="st1" d="M115.8,34.4c0,19-15.4,34.4-34.4,34.4S47,53.4,47,34.4S62.4,0,81.4,0S115.8,15.4,115.8,34.4z M81.4,10.1
		C67.9,10.1,57,21,57,34.4s10.9,24.3,24.3,24.3s24.3-10.9,24.3-24.3S94.8,10.1,81.4,10.1z"/>
	<circle class="st1" cx="81.4" cy="34.4" r="14.1"/>
	<path class="st1" d="M108.7,59.6c0,0,7.9,4.5,26.1,5.4c29.9-1,27.9-19.7,27.9-19.7c1.4-19-34-18.7-31.3-23.1
		c1.1-2.8,9.2-2.5,9.2-2.5c7.5-0.3,17.1,2.2,17.1,2.2l2.5-15.5c0,0-8.3-2.9-20.7-2.9c-22.3,0-27.1,10.1-27.1,10.1
		c7.8,9.3,6.1,24.5,6.1,24.5s4.2,1.9,9.4,3.5c4.8,1.3,12.3,2.8,12.5,5.1c-0.2,2.8-6.7,2.5-6.7,2.5c-10.1,0-17-3.2-17-3.2
		C114.5,53.4,108.7,59.6,108.7,59.6z"/>
	<g>
		<path class="st2" d="M82.9,27.3c0.6-0.7,0.9-1.6,0.9-1.6c0.1,1.3-0.5,3.2-0.5,3.2s0.5-0.5,1.3-1c0.8-0.5,1.3-1.3,1.3-1.3
			c-0.3,1.3-1.3,3-1.3,3s0.6-0.4,1.5-0.6c0.9-0.3,1.6-0.9,1.6-0.9c-0.6,1.2-2,2.6-2,2.6s0.7-0.2,1.6-0.2c0.9,0,1.8-0.5,1.8-0.5
			c-0.9,1-2.6,2-2.6,2s0.7,0,1.6,0.2c0.9,0.2,1.9,0,1.9,0c-1.1,0.7-3,1.2-3,1.2s0.7,0.2,1.5,0.6c0.8,0.4,1.8,0.5,1.8,0.5
			C89,34.7,87,34.7,87,34.7s0.6,0.4,1.3,1c0.7,0.6,1.6,0.9,1.6,0.9c-1.3,0.1-3.2-0.5-3.2-0.5s0.5,0.5,1,1.3c0.5,0.8,1.3,1.3,1.3,1.3
			c-1.3-0.3-3-1.3-3-1.3s0.4,0.6,0.6,1.5s0.9,1.6,0.9,1.6c-1.2-0.6-2.6-2-2.6-2s0.2,0.7,0.2,1.6c0,0.9,0.5,1.8,0.5,1.8
			c-1-0.9-2-2.6-2-2.6s0,0.7-0.2,1.6s0,1.9,0,1.9c-0.7-1.1-1.2-3-1.2-3s-0.2,0.7-0.6,1.5c-0.4,0.8-0.5,1.8-0.5,1.8
			c-0.4-1.3-0.4-3.2-0.4-3.2s-0.4,0.6-1,1.3c-0.6,0.7-0.9,1.6-0.9,1.6c-0.1-1.3,0.5-3.2,0.5-3.2s-0.5,0.5-1.3,1
			c-0.8,0.5-1.3,1.3-1.3,1.3c0.3-1.3,1.3-3,1.3-3s-0.6,0.4-1.5,0.6S75,40.5,75,40.5c0.6-1.2,2-2.6,2-2.6s-0.7,0.2-1.6,0.2
			c-0.9,0-1.8,0.5-1.8,0.5c0.9-1,2.6-2,2.6-2s-0.7,0-1.6-0.2c-0.9-0.2-1.9,0-1.9,0c1.1-0.7,3-1.2,3-1.2S75,35,74.2,34.6
			c-0.8-0.4-1.8-0.5-1.8-0.5c1.3-0.4,3.2-0.4,3.2-0.4s-0.6-0.4-1.3-1s-1.6-0.9-1.6-0.9c1.3-0.1,3.2,0.5,3.2,0.5s-0.5-0.5-1-1.3
			c-0.5-0.8-1.3-1.3-1.3-1.3c1.3,0.3,3,1.3,3,1.3s-0.4-0.6-0.6-1.5s-0.9-1.6-0.9-1.6c1.2,0.6,2.6,2,2.6,2s-0.2-0.7-0.2-1.6
			c0-0.9-0.5-1.8-0.5-1.8c1,0.9,2,2.6,2,2.6s0-0.7,0.2-1.6c0.2-0.9,0-1.9,0-1.9c0.7,1.1,1.2,3,1.2,3s0.2-0.7,0.6-1.5
			c0.4-0.8,0.5-1.8,0.5-1.8c0.4,1.3,0.4,3.2,0.4,3.2S82.2,27.9,82.9,27.3z"/>
	</g>
</g>
<g>
</g>
<g>
</g>
<g>
</g>
<g>
</g>
<g>
</g>
<g>
</g>
<g>
</g>
<g>
</g>
<g>
</g>
<g>
</g>
<g>
</g>
<g>
</g>
<g>
</g>
<g>
</g>
<g>
</g>
</svg>
